<?xml version="1.0" encoding="UTF-8" standalone="no"?>
<!DOCTYPE svg PUBLIC "-//W3C//DTD SVG 1.1//EN" "http://www.w3.org/Graphics/SVG/1.1/DTD/svg11.dtd">
<svg width="100%" height="100%" viewBox="0 0 938 245" version="1.1" xmlns="http://www.w3.org/2000/svg" xmlns:xlink="http://www.w3.org/1999/xlink" xml:space="preserve" xmlns:serif="http://www.serif.com/" style="fill-rule:evenodd;clip-rule:evenodd;stroke-linejoin:round;stroke-miterlimit:2;">
    <g transform="matrix(1,0,0,1,-1194.31,-1562.98)">
        <g transform="matrix(0.640339,0,0,0.640339,1032.92,658.709)">
            <g transform="matrix(0.836124,0,0,0.836124,-184.706,6.43095)">
                <g transform="matrix(1.49908,0,0,1.48524,-872.363,-1213.59)">
                    <g transform="matrix(1.22111,0,0,-1.05522,342.845,2967.46)">
                        <path d="M679.039,878.172L709.51,939.113L648.568,939.113L679.039,878.172Z" style="fill:white;"/>
                    </g>
                    <g transform="matrix(1.22111,0,0,-1.05522,301.772,3038.73)">
                        <path d="M679.039,878.172L709.51,939.113L648.568,939.113L679.039,878.172Z" style="fill:white;"/>
                    </g>
                    <g transform="matrix(1.22111,0,0,1.05522,301.172,1052.48)">
                        <path d="M679.039,878.172L709.51,939.113L648.568,939.113L679.039,878.172Z" style="fill:white;"/>
                    </g>
                    <g transform="matrix(1.22111,0,0,1.05522,260.58,1123.62)">
                        <path d="M679.039,878.172L709.51,939.113L648.568,939.113L679.039,878.172Z" style="fill:white;"/>
                    </g>
                    <g transform="matrix(1.22111,0,0,1.05522,178.514,1123.62)">
                        <path d="M679.039,878.172L709.51,939.113L648.568,939.113L679.039,878.172Z" style="fill:white;"/>
                    </g>
                    <g transform="matrix(1.22111,0,0,1.05522,138.406,1052.61)">
                        <path d="M679.039,878.172L709.51,939.113L648.568,939.113L679.039,878.172Z" style="fill:white;"/>
                    </g>
                    <g transform="matrix(1.22111,0,0,1.05522,219.722,1194.19)">
                        <path d="M679.039,878.172L709.51,939.113L648.568,939.113L679.039,878.172Z" style="fill:white;"/>
                    </g>
                    <g transform="matrix(1.22111,0,0,-1.05522,260.58,3109.53)">
                        <path d="M679.039,878.172L709.51,939.113L648.568,939.113L679.039,878.172Z" style="fill:white;"/>
                    </g>
                    <g transform="matrix(1.22111,0,0,-1.05522,178.514,3109.53)">
                        <path d="M679.039,878.172L709.51,939.113L648.568,939.113L679.039,878.172Z" style="fill:white;"/>
                    </g>
                    <g transform="matrix(1.22111,0,0,-1.05522,138.406,3038.52)">
                        <path d="M679.039,878.172L709.51,939.113L648.568,939.113L679.039,878.172Z" style="fill:white;"/>
                    </g>
                    <g transform="matrix(1.22111,0,0,-1.05522,219.722,3180.11)">
                        <path d="M679.039,878.172L709.51,939.113L648.568,939.113L679.039,878.172Z" style="fill:white;"/>
                    </g>
                    <g transform="matrix(1.22111,0,0,1.05522,178.514,1265.01)">
                        <path d="M679.039,878.172L709.51,939.113L648.568,939.113L679.039,878.172Z" style="fill:white;"/>
                    </g>
                </g>
                <g transform="matrix(0.353604,0,0,0.312407,450.751,1705.4)">
                    <rect x="1712.23" y="53.021" width="47.536" height="1328.77" style="fill:white;"/>
                </g>
                <g transform="matrix(2.00497,0,0,2.00497,1173.21,2010.78)">
                    <g transform="matrix(220.9,0,0,220.9,0,0)">
                        <path d="M0.01,-0.517C0.025,-0.52 0.039,-0.522 0.051,-0.523L0.083,-0.523C0.096,-0.523 0.11,-0.523 0.124,-0.522C0.138,-0.521 0.151,-0.52 0.162,-0.517L0.27,-0.066L0.392,-0.517C0.414,-0.521 0.437,-0.523 0.46,-0.523L0.492,-0.523C0.503,-0.522 0.517,-0.52 0.534,-0.517L0.341,0.122C0.333,0.147 0.324,0.168 0.313,0.185C0.302,0.202 0.289,0.215 0.275,0.224C0.261,0.233 0.245,0.24 0.228,0.244C0.211,0.247 0.192,0.249 0.172,0.249C0.153,0.249 0.137,0.248 0.122,0.246C0.107,0.243 0.092,0.24 0.077,0.236C0.076,0.233 0.076,0.23 0.076,0.228L0.076,0.22C0.076,0.204 0.078,0.189 0.082,0.175C0.085,0.16 0.09,0.146 0.095,0.133C0.101,0.135 0.109,0.137 0.119,0.139C0.129,0.14 0.139,0.141 0.149,0.141C0.157,0.141 0.165,0.141 0.173,0.14C0.181,0.139 0.189,0.136 0.197,0.131C0.204,0.126 0.211,0.118 0.218,0.107C0.225,0.096 0.231,0.081 0.236,0.062L0.253,-0C0.246,0.001 0.238,0.001 0.229,0.002L0.18,0.002C0.173,0.002 0.167,0.001 0.162,-0L0.01,-0.517Z" style="fill:white;fill-rule:nonzero;"/>
                    </g>
                    <g transform="matrix(220.9,0,0,220.9,119.728,0)">
                        <path d="M0.061,-0.517C0.085,-0.521 0.109,-0.523 0.132,-0.523C0.155,-0.523 0.179,-0.521 0.203,-0.517L0.203,-0.243C0.203,-0.216 0.205,-0.193 0.21,-0.176C0.214,-0.158 0.221,-0.144 0.23,-0.134C0.239,-0.123 0.25,-0.116 0.263,-0.112C0.276,-0.107 0.292,-0.105 0.31,-0.105C0.335,-0.105 0.355,-0.107 0.372,-0.112L0.372,-0.517C0.396,-0.521 0.419,-0.523 0.442,-0.523C0.465,-0.523 0.489,-0.521 0.513,-0.517L0.513,-0.02C0.492,-0.013 0.463,-0.006 0.429,0.002C0.393,0.009 0.357,0.012 0.319,0.012C0.285,0.012 0.252,0.009 0.221,0.004C0.19,-0.001 0.162,-0.013 0.139,-0.03C0.115,-0.047 0.096,-0.073 0.082,-0.106C0.068,-0.139 0.061,-0.184 0.061,-0.239L0.061,-0.517Z" style="fill:white;fill-rule:nonzero;"/>
                    </g>
                    <g transform="matrix(220.9,0,0,220.9,246.083,0)">
                        <path d="M0.38,-0.731C0.392,-0.733 0.404,-0.734 0.416,-0.735C0.427,-0.736 0.439,-0.736 0.45,-0.736C0.461,-0.736 0.473,-0.736 0.485,-0.735C0.497,-0.734 0.509,-0.733 0.521,-0.731L0.521,-0.017C0.49,-0.008 0.458,-0 0.426,0.005C0.393,0.01 0.354,0.012 0.308,0.012C0.273,0.012 0.239,0.007 0.207,-0.003C0.174,-0.012 0.146,-0.028 0.121,-0.049C0.096,-0.07 0.077,-0.097 0.063,-0.13C0.048,-0.163 0.041,-0.204 0.041,-0.252C0.041,-0.29 0.047,-0.326 0.06,-0.36C0.072,-0.393 0.09,-0.422 0.113,-0.447C0.135,-0.472 0.163,-0.491 0.196,-0.506C0.229,-0.52 0.265,-0.527 0.305,-0.527C0.317,-0.527 0.33,-0.527 0.343,-0.526C0.356,-0.525 0.368,-0.522 0.38,-0.519L0.38,-0.731ZM0.38,-0.41C0.367,-0.413 0.356,-0.416 0.348,-0.417C0.339,-0.418 0.329,-0.418 0.316,-0.418C0.294,-0.418 0.275,-0.413 0.259,-0.405C0.242,-0.396 0.229,-0.384 0.218,-0.369C0.207,-0.354 0.2,-0.336 0.195,-0.316C0.19,-0.295 0.187,-0.274 0.187,-0.252C0.187,-0.225 0.19,-0.202 0.197,-0.183C0.204,-0.164 0.213,-0.148 0.225,-0.137C0.236,-0.126 0.25,-0.117 0.266,-0.113C0.282,-0.108 0.299,-0.105 0.318,-0.105C0.329,-0.105 0.34,-0.106 0.349,-0.107C0.358,-0.108 0.369,-0.11 0.38,-0.113L0.38,-0.41Z" style="fill:white;fill-rule:nonzero;"/>
                    </g>
                    <g transform="matrix(220.9,0,0,220.9,375.972,0)">
                        <path d="M0.098,-0.409L0.031,-0.409C0.029,-0.418 0.028,-0.427 0.027,-0.437C0.025,-0.446 0.025,-0.455 0.025,-0.464C0.025,-0.482 0.027,-0.5 0.031,-0.517L0.237,-0.517L0.237,-0C0.213,0.004 0.19,0.006 0.167,0.006C0.145,0.006 0.122,0.004 0.098,-0L0.098,-0.409ZM0.077,-0.604C0.073,-0.627 0.071,-0.649 0.071,-0.671C0.071,-0.692 0.073,-0.715 0.077,-0.738C0.088,-0.74 0.1,-0.741 0.114,-0.743C0.127,-0.744 0.138,-0.744 0.149,-0.744C0.16,-0.744 0.173,-0.744 0.186,-0.743C0.199,-0.741 0.212,-0.74 0.223,-0.738C0.225,-0.727 0.226,-0.716 0.227,-0.705C0.228,-0.694 0.228,-0.682 0.228,-0.671C0.228,-0.66 0.228,-0.649 0.227,-0.638C0.226,-0.627 0.225,-0.615 0.223,-0.604C0.212,-0.602 0.2,-0.601 0.187,-0.6C0.173,-0.599 0.161,-0.599 0.15,-0.599C0.139,-0.599 0.127,-0.599 0.114,-0.6C0.101,-0.601 0.088,-0.602 0.077,-0.604Z" style="fill:white;fill-rule:nonzero;"/>
                    </g>
                    <g transform="matrix(220.9,0,0,220.9,443.788,0)">
                        <path d="M0.027,-0.012L0.26,-0.408L0.062,-0.408C0.06,-0.418 0.059,-0.428 0.058,-0.437C0.057,-0.446 0.057,-0.456 0.057,-0.465C0.057,-0.474 0.057,-0.482 0.058,-0.491C0.059,-0.499 0.06,-0.508 0.062,-0.517L0.469,-0.517L0.474,-0.505L0.237,-0.109L0.457,-0.109C0.459,-0.099 0.46,-0.089 0.461,-0.08C0.462,-0.071 0.462,-0.061 0.462,-0.052C0.462,-0.043 0.462,-0.035 0.461,-0.027C0.46,-0.018 0.459,-0.009 0.457,-0L0.035,-0L0.027,-0.012Z" style="fill:white;fill-rule:nonzero;"/>
                    </g>
                </g>
                <g transform="matrix(2.29804,0,0,2.29804,1465.72,2120.05)">
                    <g id="Solutions-Private-Limited">
                        <g>
                            <g transform="matrix(36.8167,0,0,36.8167,0,0)">
                                <path d="M0.078,-0.147C0.103,-0.138 0.129,-0.13 0.156,-0.123C0.182,-0.116 0.207,-0.113 0.232,-0.113C0.253,-0.113 0.272,-0.115 0.29,-0.12C0.307,-0.125 0.323,-0.132 0.336,-0.141C0.349,-0.15 0.359,-0.162 0.366,-0.175C0.373,-0.188 0.377,-0.204 0.377,-0.222C0.377,-0.235 0.374,-0.247 0.368,-0.257C0.362,-0.267 0.354,-0.276 0.345,-0.284C0.336,-0.292 0.325,-0.3 0.312,-0.307C0.299,-0.314 0.287,-0.321 0.274,-0.329C0.231,-0.354 0.198,-0.381 0.173,-0.408C0.148,-0.435 0.135,-0.466 0.135,-0.503C0.135,-0.539 0.141,-0.571 0.154,-0.6C0.167,-0.628 0.185,-0.652 0.208,-0.671C0.231,-0.69 0.26,-0.705 0.293,-0.716C0.326,-0.726 0.363,-0.731 0.404,-0.731C0.441,-0.731 0.472,-0.728 0.499,-0.723C0.526,-0.718 0.554,-0.709 0.583,-0.698C0.58,-0.68 0.576,-0.661 0.569,-0.641C0.562,-0.621 0.553,-0.601 0.541,-0.582C0.522,-0.591 0.502,-0.599 0.482,-0.605C0.461,-0.611 0.435,-0.614 0.402,-0.614C0.39,-0.614 0.377,-0.613 0.364,-0.611C0.35,-0.609 0.338,-0.605 0.327,-0.6C0.316,-0.594 0.306,-0.586 0.299,-0.576C0.292,-0.566 0.288,-0.553 0.288,-0.537C0.288,-0.514 0.296,-0.496 0.313,-0.481C0.329,-0.466 0.35,-0.452 0.375,-0.437C0.398,-0.424 0.419,-0.412 0.438,-0.399C0.457,-0.386 0.474,-0.373 0.489,-0.358C0.504,-0.343 0.515,-0.327 0.524,-0.309C0.532,-0.29 0.536,-0.269 0.536,-0.245C0.536,-0.211 0.53,-0.178 0.518,-0.147C0.505,-0.116 0.486,-0.088 0.461,-0.065C0.435,-0.042 0.402,-0.023 0.363,-0.009C0.324,0.005 0.277,0.012 0.223,0.012C0.16,0.012 0.099,0 0.038,-0.023C0.041,-0.043 0.046,-0.063 0.053,-0.084C0.059,-0.104 0.068,-0.125 0.078,-0.147Z" style="fill:white;fill-rule:nonzero;"/>
                            </g>
                            <g transform="matrix(36.8167,0,0,36.8167,21.0223,0)">
                                <path d="M0.278,0.012C0.209,0.012 0.159,-0.006 0.127,-0.042C0.094,-0.078 0.078,-0.127 0.078,-0.19C0.078,-0.23 0.084,-0.27 0.096,-0.311C0.108,-0.351 0.126,-0.387 0.15,-0.42C0.174,-0.452 0.204,-0.478 0.241,-0.499C0.277,-0.519 0.319,-0.529 0.368,-0.529C0.437,-0.529 0.488,-0.511 0.521,-0.474C0.553,-0.437 0.569,-0.388 0.569,-0.325C0.569,-0.284 0.563,-0.243 0.552,-0.203C0.54,-0.163 0.522,-0.127 0.498,-0.095C0.474,-0.063 0.444,-0.037 0.407,-0.018C0.37,0.002 0.327,0.012 0.278,0.012ZM0.291,-0.096C0.316,-0.096 0.338,-0.104 0.355,-0.12C0.372,-0.136 0.387,-0.156 0.398,-0.18C0.409,-0.203 0.416,-0.228 0.421,-0.255C0.426,-0.281 0.428,-0.305 0.428,-0.326C0.428,-0.387 0.403,-0.418 0.353,-0.418C0.328,-0.418 0.307,-0.41 0.29,-0.393C0.273,-0.376 0.26,-0.356 0.249,-0.332C0.238,-0.308 0.231,-0.283 0.227,-0.256C0.222,-0.229 0.22,-0.206 0.22,-0.185C0.22,-0.126 0.244,-0.096 0.291,-0.096Z" style="fill:white;fill-rule:nonzero;"/>
                            </g>
                            <g transform="matrix(36.8167,0,0,36.8167,43.0387,0)">
                                <path d="M0.165,-0.537C0.172,-0.572 0.178,-0.603 0.181,-0.63C0.184,-0.656 0.185,-0.678 0.185,-0.696C0.185,-0.703 0.185,-0.709 0.185,-0.715C0.184,-0.72 0.184,-0.725 0.183,-0.731C0.194,-0.733 0.207,-0.735 0.222,-0.736C0.237,-0.737 0.249,-0.737 0.26,-0.737C0.279,-0.737 0.301,-0.735 0.324,-0.731C0.327,-0.721 0.329,-0.708 0.329,-0.693C0.329,-0.679 0.328,-0.663 0.325,-0.645C0.322,-0.627 0.319,-0.607 0.315,-0.586L0.238,-0.184C0.236,-0.173 0.235,-0.163 0.235,-0.156C0.235,-0.145 0.237,-0.137 0.24,-0.131C0.243,-0.125 0.246,-0.12 0.251,-0.117C0.256,-0.114 0.261,-0.112 0.267,-0.111C0.273,-0.11 0.279,-0.109 0.285,-0.109C0.288,-0.109 0.293,-0.11 0.3,-0.111C0.307,-0.112 0.314,-0.113 0.32,-0.115C0.323,-0.104 0.326,-0.091 0.329,-0.078C0.331,-0.065 0.332,-0.051 0.332,-0.037C0.332,-0.032 0.332,-0.027 0.332,-0.022C0.331,-0.017 0.331,-0.012 0.33,-0.007C0.32,-0.003 0.307,0 0.291,0.003C0.275,0.005 0.257,0.006 0.238,0.006C0.193,0.006 0.157,-0.005 0.131,-0.028C0.105,-0.05 0.092,-0.085 0.092,-0.133C0.092,-0.142 0.093,-0.152 0.094,-0.163C0.095,-0.173 0.097,-0.184 0.099,-0.195L0.165,-0.537Z" style="fill:white;fill-rule:nonzero;"/>
                            </g>
                            <g transform="matrix(36.8167,0,0,36.8167,56.44,0)">
                                <path d="M0.161,-0.517C0.174,-0.519 0.186,-0.521 0.199,-0.522C0.211,-0.523 0.223,-0.523 0.234,-0.523C0.257,-0.523 0.28,-0.521 0.303,-0.517L0.247,-0.2C0.244,-0.187 0.243,-0.174 0.243,-0.162C0.243,-0.142 0.247,-0.128 0.256,-0.12C0.265,-0.112 0.277,-0.108 0.293,-0.108C0.302,-0.108 0.313,-0.11 0.325,-0.115C0.336,-0.12 0.348,-0.129 0.36,-0.145C0.372,-0.16 0.384,-0.181 0.395,-0.208C0.406,-0.235 0.416,-0.271 0.424,-0.316L0.461,-0.517C0.487,-0.521 0.511,-0.523 0.534,-0.523C0.557,-0.523 0.58,-0.521 0.603,-0.517L0.549,-0.222C0.542,-0.18 0.536,-0.143 0.533,-0.111C0.529,-0.078 0.527,-0.053 0.527,-0.035L0.527,-0.017C0.527,-0.012 0.527,-0.006 0.528,-0C0.506,0.004 0.484,0.006 0.462,0.006C0.443,0.006 0.423,0.004 0.4,-0C0.399,-0.005 0.397,-0.012 0.396,-0.019C0.395,-0.026 0.394,-0.037 0.394,-0.052C0.394,-0.058 0.394,-0.064 0.395,-0.07C0.395,-0.076 0.396,-0.083 0.397,-0.092C0.389,-0.078 0.379,-0.065 0.367,-0.052C0.355,-0.039 0.341,-0.028 0.326,-0.019C0.311,-0.01 0.294,-0.002 0.277,0.003C0.259,0.008 0.241,0.011 0.223,0.011C0.183,0.011 0.152,0.001 0.13,-0.02C0.107,-0.04 0.096,-0.074 0.096,-0.121C0.096,-0.131 0.097,-0.142 0.098,-0.153C0.099,-0.164 0.101,-0.176 0.103,-0.189L0.161,-0.517Z" style="fill:white;fill-rule:nonzero;"/>
                            </g>
                            <g transform="matrix(36.8167,0,0,36.8167,79.4504,0)">
                                <path d="M0.156,-0.409L0.079,-0.409C0.079,-0.427 0.08,-0.445 0.083,-0.462C0.086,-0.479 0.091,-0.498 0.098,-0.517L0.175,-0.517L0.181,-0.547C0.184,-0.564 0.186,-0.58 0.187,-0.595C0.188,-0.61 0.188,-0.622 0.188,-0.632C0.205,-0.643 0.227,-0.651 0.253,-0.656C0.279,-0.661 0.303,-0.663 0.325,-0.663C0.328,-0.653 0.33,-0.64 0.33,-0.625C0.33,-0.614 0.329,-0.603 0.328,-0.591C0.326,-0.578 0.324,-0.565 0.321,-0.55L0.315,-0.517L0.439,-0.517C0.439,-0.497 0.437,-0.479 0.434,-0.462C0.431,-0.445 0.426,-0.428 0.42,-0.409L0.296,-0.409L0.261,-0.212C0.26,-0.203 0.259,-0.194 0.258,-0.186C0.257,-0.178 0.256,-0.17 0.256,-0.163C0.256,-0.146 0.26,-0.132 0.268,-0.122C0.276,-0.112 0.291,-0.107 0.313,-0.107C0.324,-0.107 0.334,-0.108 0.343,-0.11C0.352,-0.111 0.36,-0.113 0.367,-0.115C0.376,-0.096 0.38,-0.07 0.38,-0.039L0.38,-0.023C0.38,-0.018 0.38,-0.012 0.379,-0.007C0.35,0.002 0.316,0.006 0.276,0.006C0.22,0.006 0.179,-0.004 0.152,-0.025C0.125,-0.046 0.111,-0.08 0.111,-0.129C0.111,-0.139 0.112,-0.149 0.113,-0.16C0.114,-0.171 0.116,-0.182 0.118,-0.195L0.156,-0.409Z" style="fill:white;fill-rule:nonzero;"/>
                            </g>
                            <g transform="matrix(36.8167,0,0,36.8167,94.9503,0)">
                                <path d="M0.169,-0.409L0.106,-0.409L0.105,-0.422C0.105,-0.439 0.107,-0.456 0.11,-0.471C0.113,-0.486 0.118,-0.501 0.125,-0.517L0.327,-0.517L0.236,-0C0.211,0.004 0.187,0.006 0.164,0.006C0.143,0.006 0.121,0.004 0.097,-0L0.169,-0.409ZM0.198,-0.604C0.197,-0.627 0.199,-0.65 0.203,-0.671C0.206,-0.692 0.212,-0.714 0.22,-0.737C0.232,-0.74 0.245,-0.741 0.258,-0.743C0.271,-0.744 0.283,-0.744 0.294,-0.744C0.305,-0.744 0.317,-0.744 0.33,-0.743C0.343,-0.741 0.355,-0.74 0.366,-0.737C0.366,-0.714 0.364,-0.691 0.36,-0.67C0.356,-0.649 0.35,-0.627 0.342,-0.604C0.33,-0.602 0.318,-0.601 0.305,-0.6C0.292,-0.599 0.28,-0.599 0.269,-0.599C0.259,-0.599 0.247,-0.599 0.234,-0.6C0.221,-0.601 0.209,-0.602 0.198,-0.604Z" style="fill:white;fill-rule:nonzero;"/>
                            </g>
                            <g transform="matrix(36.8167,0,0,36.8167,107.91,0)">
                                <path d="M0.278,0.012C0.209,0.012 0.159,-0.006 0.127,-0.042C0.094,-0.078 0.078,-0.127 0.078,-0.19C0.078,-0.23 0.084,-0.27 0.096,-0.311C0.108,-0.351 0.126,-0.387 0.15,-0.42C0.174,-0.452 0.204,-0.478 0.241,-0.499C0.277,-0.519 0.319,-0.529 0.368,-0.529C0.437,-0.529 0.488,-0.511 0.521,-0.474C0.553,-0.437 0.569,-0.388 0.569,-0.325C0.569,-0.284 0.563,-0.243 0.552,-0.203C0.54,-0.163 0.522,-0.127 0.498,-0.095C0.474,-0.063 0.444,-0.037 0.407,-0.018C0.37,0.002 0.327,0.012 0.278,0.012ZM0.291,-0.096C0.316,-0.096 0.338,-0.104 0.355,-0.12C0.372,-0.136 0.387,-0.156 0.398,-0.18C0.409,-0.203 0.416,-0.228 0.421,-0.255C0.426,-0.281 0.428,-0.305 0.428,-0.326C0.428,-0.387 0.403,-0.418 0.353,-0.418C0.328,-0.418 0.307,-0.41 0.29,-0.393C0.273,-0.376 0.26,-0.356 0.249,-0.332C0.238,-0.308 0.231,-0.283 0.227,-0.256C0.222,-0.229 0.22,-0.206 0.22,-0.185C0.22,-0.126 0.244,-0.096 0.291,-0.096Z" style="fill:white;fill-rule:nonzero;"/>
                            </g>
                            <g transform="matrix(36.8167,0,0,36.8167,129.926,0)">
                                <path d="M0.127,-0.295C0.134,-0.337 0.14,-0.374 0.144,-0.407C0.147,-0.439 0.149,-0.464 0.149,-0.482L0.149,-0.501C0.149,-0.506 0.149,-0.511 0.148,-0.517C0.17,-0.521 0.192,-0.523 0.214,-0.523C0.224,-0.523 0.234,-0.523 0.244,-0.522C0.254,-0.521 0.265,-0.519 0.276,-0.517C0.277,-0.512 0.279,-0.505 0.28,-0.498C0.281,-0.491 0.282,-0.48 0.282,-0.465C0.282,-0.459 0.282,-0.453 0.282,-0.447C0.281,-0.441 0.28,-0.434 0.279,-0.425C0.287,-0.439 0.297,-0.452 0.309,-0.465C0.321,-0.478 0.335,-0.489 0.35,-0.498C0.365,-0.507 0.382,-0.515 0.4,-0.52C0.417,-0.525 0.435,-0.528 0.453,-0.528C0.493,-0.528 0.524,-0.518 0.547,-0.498C0.569,-0.477 0.58,-0.443 0.58,-0.396C0.58,-0.386 0.579,-0.375 0.578,-0.364C0.577,-0.353 0.575,-0.341 0.573,-0.328L0.515,-0C0.49,0.004 0.465,0.006 0.442,0.006C0.419,0.006 0.396,0.004 0.373,-0L0.429,-0.317C0.432,-0.33 0.433,-0.343 0.433,-0.355C0.433,-0.375 0.429,-0.389 0.42,-0.397C0.411,-0.405 0.399,-0.409 0.383,-0.409C0.374,-0.409 0.363,-0.407 0.352,-0.402C0.34,-0.397 0.328,-0.388 0.316,-0.373C0.304,-0.358 0.292,-0.336 0.281,-0.309C0.27,-0.282 0.26,-0.246 0.252,-0.201L0.215,-0C0.189,0.004 0.165,0.006 0.142,0.006C0.119,0.006 0.096,0.004 0.073,-0L0.127,-0.295Z" style="fill:white;fill-rule:nonzero;"/>
                            </g>
                            <g transform="matrix(36.8167,0,0,36.8167,152.937,0)">
                                <path d="M0.208,-0.228C0.197,-0.232 0.187,-0.237 0.176,-0.244C0.165,-0.25 0.156,-0.258 0.147,-0.268C0.137,-0.277 0.13,-0.289 0.125,-0.303C0.119,-0.317 0.116,-0.334 0.116,-0.353C0.116,-0.381 0.122,-0.406 0.133,-0.428C0.143,-0.449 0.159,-0.468 0.179,-0.483C0.198,-0.498 0.221,-0.509 0.248,-0.517C0.274,-0.525 0.302,-0.529 0.333,-0.529C0.344,-0.529 0.355,-0.529 0.368,-0.528C0.381,-0.527 0.394,-0.525 0.407,-0.523C0.42,-0.521 0.432,-0.518 0.445,-0.515C0.457,-0.511 0.468,-0.506 0.478,-0.501C0.477,-0.484 0.474,-0.467 0.469,-0.45C0.464,-0.432 0.455,-0.415 0.444,-0.398C0.43,-0.405 0.413,-0.411 0.393,-0.416C0.373,-0.421 0.354,-0.423 0.336,-0.423C0.329,-0.423 0.321,-0.422 0.312,-0.421C0.303,-0.42 0.294,-0.417 0.286,-0.414C0.278,-0.411 0.271,-0.406 0.266,-0.399C0.261,-0.392 0.258,-0.384 0.258,-0.374C0.258,-0.354 0.271,-0.338 0.296,-0.327L0.335,-0.31C0.348,-0.305 0.36,-0.299 0.372,-0.292C0.384,-0.285 0.395,-0.276 0.404,-0.266C0.413,-0.256 0.421,-0.244 0.427,-0.231C0.432,-0.218 0.435,-0.202 0.435,-0.184C0.435,-0.151 0.428,-0.122 0.415,-0.098C0.402,-0.073 0.384,-0.053 0.361,-0.037C0.338,-0.02 0.312,-0.008 0.281,-0C0.25,0.008 0.217,0.012 0.182,0.012C0.161,0.012 0.137,0.01 0.111,0.006C0.085,0.001 0.062,-0.005 0.041,-0.014C0.043,-0.053 0.053,-0.089 0.071,-0.122C0.092,-0.113 0.113,-0.106 0.135,-0.103C0.156,-0.099 0.177,-0.097 0.197,-0.097C0.207,-0.097 0.218,-0.098 0.229,-0.1C0.24,-0.102 0.251,-0.105 0.26,-0.11C0.269,-0.115 0.277,-0.121 0.284,-0.13C0.29,-0.138 0.293,-0.148 0.293,-0.16C0.293,-0.173 0.288,-0.184 0.279,-0.193C0.27,-0.201 0.257,-0.208 0.24,-0.215L0.208,-0.228Z" style="fill:white;fill-rule:nonzero;"/>
                            </g>
                            <g transform="matrix(36.8167,0,0,36.8167,179.96,0)">
                                <path d="M0.205,-0.719C0.23,-0.724 0.255,-0.726 0.279,-0.726C0.302,-0.726 0.326,-0.724 0.349,-0.719L0.245,-0.126L0.481,-0.126C0.481,-0.115 0.48,-0.104 0.479,-0.094C0.478,-0.083 0.476,-0.073 0.475,-0.064C0.473,-0.053 0.471,-0.043 0.468,-0.033C0.465,-0.022 0.462,-0.011 0.459,-0L0.079,-0L0.205,-0.719Z" style="fill:white;fill-rule:nonzero;"/>
                            </g>
                            <g transform="matrix(36.8167,0,0,36.8167,199.436,0)">
                                <path d="M0.169,-0.409L0.106,-0.409L0.105,-0.422C0.105,-0.439 0.107,-0.456 0.11,-0.471C0.113,-0.486 0.118,-0.501 0.125,-0.517L0.327,-0.517L0.236,-0C0.211,0.004 0.187,0.006 0.164,0.006C0.143,0.006 0.121,0.004 0.097,-0L0.169,-0.409ZM0.198,-0.604C0.197,-0.627 0.199,-0.65 0.203,-0.671C0.206,-0.692 0.212,-0.714 0.22,-0.737C0.232,-0.74 0.245,-0.741 0.258,-0.743C0.271,-0.744 0.283,-0.744 0.294,-0.744C0.305,-0.744 0.317,-0.744 0.33,-0.743C0.343,-0.741 0.355,-0.74 0.366,-0.737C0.366,-0.714 0.364,-0.691 0.36,-0.67C0.356,-0.649 0.35,-0.627 0.342,-0.604C0.33,-0.602 0.318,-0.601 0.305,-0.6C0.292,-0.599 0.28,-0.599 0.269,-0.599C0.259,-0.599 0.247,-0.599 0.234,-0.6C0.221,-0.601 0.209,-0.602 0.198,-0.604Z" style="fill:white;fill-rule:nonzero;"/>
                            </g>
                            <g transform="matrix(36.8167,0,0,36.8167,212.396,0)">
                                <path d="M0.127,-0.295C0.134,-0.337 0.14,-0.374 0.144,-0.407C0.147,-0.439 0.149,-0.464 0.149,-0.482L0.149,-0.501C0.149,-0.506 0.149,-0.511 0.148,-0.517C0.17,-0.521 0.192,-0.523 0.214,-0.523C0.224,-0.523 0.234,-0.523 0.244,-0.522C0.254,-0.521 0.265,-0.519 0.276,-0.517C0.277,-0.512 0.279,-0.505 0.28,-0.498C0.281,-0.491 0.282,-0.48 0.282,-0.465C0.282,-0.459 0.282,-0.453 0.282,-0.447C0.281,-0.441 0.28,-0.434 0.279,-0.425C0.294,-0.454 0.317,-0.478 0.348,-0.498C0.378,-0.518 0.411,-0.528 0.448,-0.528C0.483,-0.528 0.511,-0.52 0.531,-0.505C0.55,-0.489 0.562,-0.463 0.566,-0.427C0.582,-0.455 0.605,-0.479 0.636,-0.499C0.667,-0.518 0.7,-0.528 0.736,-0.528C0.776,-0.528 0.806,-0.518 0.827,-0.499C0.848,-0.479 0.858,-0.446 0.858,-0.4C0.858,-0.377 0.856,-0.353 0.851,-0.328L0.793,-0C0.768,0.004 0.743,0.006 0.72,0.006C0.697,0.006 0.674,0.004 0.651,-0L0.707,-0.317C0.71,-0.332 0.711,-0.347 0.711,-0.36C0.711,-0.378 0.707,-0.391 0.7,-0.398C0.693,-0.405 0.681,-0.409 0.666,-0.409C0.657,-0.409 0.647,-0.407 0.636,-0.402C0.624,-0.397 0.613,-0.388 0.602,-0.375C0.591,-0.362 0.58,-0.343 0.57,-0.32C0.56,-0.297 0.552,-0.266 0.545,-0.229L0.505,-0C0.48,0.004 0.455,0.006 0.432,0.006C0.409,0.006 0.386,0.004 0.363,-0L0.419,-0.317C0.422,-0.332 0.423,-0.347 0.423,-0.36C0.423,-0.378 0.419,-0.391 0.412,-0.398C0.405,-0.405 0.393,-0.409 0.378,-0.409C0.369,-0.409 0.358,-0.407 0.347,-0.402C0.336,-0.397 0.324,-0.388 0.313,-0.373C0.302,-0.358 0.291,-0.336 0.28,-0.309C0.269,-0.282 0.26,-0.246 0.252,-0.201L0.215,-0C0.189,0.004 0.165,0.006 0.142,0.006C0.119,0.006 0.096,0.004 0.073,-0L0.127,-0.295Z" style="fill:white;fill-rule:nonzero;"/>
                            </g>
                            <g transform="matrix(36.8167,0,0,36.8167,245.641,0)">
                                <path d="M0.169,-0.409L0.106,-0.409L0.105,-0.422C0.105,-0.439 0.107,-0.456 0.11,-0.471C0.113,-0.486 0.118,-0.501 0.125,-0.517L0.327,-0.517L0.236,-0C0.211,0.004 0.187,0.006 0.164,0.006C0.143,0.006 0.121,0.004 0.097,-0L0.169,-0.409ZM0.198,-0.604C0.197,-0.627 0.199,-0.65 0.203,-0.671C0.206,-0.692 0.212,-0.714 0.22,-0.737C0.232,-0.74 0.245,-0.741 0.258,-0.743C0.271,-0.744 0.283,-0.744 0.294,-0.744C0.305,-0.744 0.317,-0.744 0.33,-0.743C0.343,-0.741 0.355,-0.74 0.366,-0.737C0.366,-0.714 0.364,-0.691 0.36,-0.67C0.356,-0.649 0.35,-0.627 0.342,-0.604C0.33,-0.602 0.318,-0.601 0.305,-0.6C0.292,-0.599 0.28,-0.599 0.269,-0.599C0.259,-0.599 0.247,-0.599 0.234,-0.6C0.221,-0.601 0.209,-0.602 0.198,-0.604Z" style="fill:white;fill-rule:nonzero;"/>
                            </g>
                            <g transform="matrix(36.8167,0,0,36.8167,258.601,0)">
                                <path d="M0.156,-0.409L0.079,-0.409C0.079,-0.427 0.08,-0.445 0.083,-0.462C0.086,-0.479 0.091,-0.498 0.098,-0.517L0.175,-0.517L0.181,-0.547C0.184,-0.564 0.186,-0.58 0.187,-0.595C0.188,-0.61 0.188,-0.622 0.188,-0.632C0.205,-0.643 0.227,-0.651 0.253,-0.656C0.279,-0.661 0.303,-0.663 0.325,-0.663C0.328,-0.653 0.33,-0.64 0.33,-0.625C0.33,-0.614 0.329,-0.603 0.328,-0.591C0.326,-0.578 0.324,-0.565 0.321,-0.55L0.315,-0.517L0.439,-0.517C0.439,-0.497 0.437,-0.479 0.434,-0.462C0.431,-0.445 0.426,-0.428 0.42,-0.409L0.296,-0.409L0.261,-0.212C0.26,-0.203 0.259,-0.194 0.258,-0.186C0.257,-0.178 0.256,-0.17 0.256,-0.163C0.256,-0.146 0.26,-0.132 0.268,-0.122C0.276,-0.112 0.291,-0.107 0.313,-0.107C0.324,-0.107 0.334,-0.108 0.343,-0.11C0.352,-0.111 0.36,-0.113 0.367,-0.115C0.376,-0.096 0.38,-0.07 0.38,-0.039L0.38,-0.023C0.38,-0.018 0.38,-0.012 0.379,-0.007C0.35,0.002 0.316,0.006 0.276,0.006C0.22,0.006 0.179,-0.004 0.152,-0.025C0.125,-0.046 0.111,-0.08 0.111,-0.129C0.111,-0.139 0.112,-0.149 0.113,-0.16C0.114,-0.171 0.116,-0.182 0.118,-0.195L0.156,-0.409Z" style="fill:white;fill-rule:nonzero;"/>
                            </g>
                            <g transform="matrix(36.8167,0,0,36.8167,274.1,0)">
                                <path d="M0.216,-0.196C0.22,-0.164 0.231,-0.14 0.248,-0.125C0.265,-0.109 0.291,-0.101 0.324,-0.101C0.351,-0.101 0.374,-0.104 0.395,-0.11C0.415,-0.115 0.436,-0.123 0.459,-0.132C0.47,-0.119 0.477,-0.102 0.481,-0.084C0.484,-0.065 0.486,-0.044 0.486,-0.023C0.475,-0.018 0.462,-0.013 0.447,-0.009C0.432,-0.004 0.416,-0.001 0.4,0.003C0.384,0.006 0.368,0.008 0.352,0.01C0.336,0.011 0.322,0.012 0.309,0.012C0.268,0.012 0.234,0.007 0.205,-0.003C0.175,-0.013 0.152,-0.027 0.133,-0.046C0.114,-0.064 0.099,-0.086 0.091,-0.113C0.082,-0.139 0.077,-0.168 0.077,-0.2C0.077,-0.241 0.084,-0.281 0.098,-0.32C0.112,-0.359 0.132,-0.395 0.158,-0.426C0.183,-0.456 0.215,-0.482 0.252,-0.501C0.289,-0.52 0.33,-0.529 0.376,-0.529C0.398,-0.529 0.419,-0.526 0.438,-0.521C0.456,-0.516 0.473,-0.507 0.487,-0.497C0.501,-0.486 0.512,-0.472 0.52,-0.456C0.528,-0.44 0.532,-0.421 0.532,-0.4C0.532,-0.37 0.525,-0.344 0.511,-0.322C0.497,-0.3 0.478,-0.281 0.455,-0.266C0.432,-0.251 0.405,-0.238 0.376,-0.229C0.346,-0.219 0.315,-0.212 0.283,-0.207L0.216,-0.196ZM0.273,-0.298C0.298,-0.302 0.319,-0.307 0.335,-0.314C0.351,-0.32 0.364,-0.327 0.373,-0.335C0.382,-0.342 0.389,-0.35 0.392,-0.358C0.395,-0.366 0.397,-0.374 0.397,-0.382C0.397,-0.395 0.393,-0.405 0.385,-0.413C0.376,-0.421 0.365,-0.425 0.351,-0.425C0.334,-0.425 0.318,-0.421 0.304,-0.414C0.289,-0.406 0.277,-0.396 0.266,-0.383C0.255,-0.37 0.246,-0.356 0.239,-0.34C0.231,-0.323 0.225,-0.307 0.221,-0.29L0.273,-0.298Z" style="fill:white;fill-rule:nonzero;"/>
                            </g>
                            <g transform="matrix(36.8167,0,0,36.8167,294.313,0)">
                                <path d="M0.431,-0.41C0.425,-0.411 0.419,-0.412 0.414,-0.413C0.408,-0.413 0.402,-0.413 0.397,-0.413C0.365,-0.413 0.338,-0.405 0.316,-0.389C0.293,-0.373 0.275,-0.353 0.26,-0.329C0.245,-0.305 0.235,-0.279 0.228,-0.252C0.221,-0.224 0.218,-0.199 0.218,-0.176C0.218,-0.127 0.234,-0.102 0.267,-0.102C0.299,-0.102 0.329,-0.122 0.356,-0.161C0.383,-0.2 0.403,-0.254 0.416,-0.325L0.431,-0.41ZM0.538,-0.224C0.531,-0.182 0.525,-0.145 0.522,-0.113C0.519,-0.08 0.517,-0.055 0.517,-0.037L0.517,-0.019C0.517,-0.013 0.517,-0.008 0.518,-0.002C0.496,0.002 0.474,0.004 0.453,0.004C0.434,0.004 0.414,0.002 0.391,-0.002C0.39,-0.007 0.388,-0.014 0.387,-0.021C0.386,-0.028 0.385,-0.039 0.385,-0.054C0.385,-0.06 0.385,-0.067 0.386,-0.075C0.386,-0.083 0.387,-0.091 0.388,-0.1C0.379,-0.085 0.368,-0.07 0.355,-0.057C0.341,-0.043 0.327,-0.031 0.312,-0.021C0.296,-0.011 0.279,-0.003 0.261,0.003C0.243,0.009 0.224,0.012 0.204,0.012C0.16,0.012 0.127,-0.002 0.105,-0.03C0.083,-0.058 0.072,-0.095 0.072,-0.141C0.072,-0.191 0.08,-0.239 0.095,-0.286C0.11,-0.333 0.132,-0.374 0.162,-0.41C0.191,-0.446 0.228,-0.475 0.272,-0.497C0.316,-0.518 0.367,-0.529 0.426,-0.529L0.451,-0.528C0.458,-0.567 0.464,-0.601 0.467,-0.628C0.47,-0.655 0.471,-0.678 0.471,-0.696C0.471,-0.703 0.471,-0.709 0.471,-0.715C0.47,-0.72 0.47,-0.725 0.469,-0.731C0.48,-0.733 0.493,-0.735 0.508,-0.736C0.523,-0.737 0.535,-0.737 0.546,-0.737C0.565,-0.737 0.587,-0.735 0.61,-0.731C0.613,-0.721 0.615,-0.708 0.615,-0.693C0.615,-0.664 0.611,-0.628 0.603,-0.586L0.538,-0.224Z" style="fill:white;fill-rule:nonzero;"/>
                            </g>
                        </g>
                    </g>
                </g>
            </g>
        </g>
    </g>
</svg>
